<?xml version="1.0" standalone="no"?>
<!DOCTYPE svg PUBLIC "-//W3C//DTD SVG 20010904//EN"
 "http://www.w3.org/TR/2001/REC-SVG-20010904/DTD/svg10.dtd">
<svg version="1.0" xmlns="http://www.w3.org/2000/svg"
 width="45.000000pt" height="45.000000pt" viewBox="0 0 45.000000 45.000000"
 preserveAspectRatio="xMidYMid meet">
<metadata>
Created by potrace 1.10, written by Peter Selinger 2001-2011
</metadata>
<g transform="translate(0.000000,45.000000) scale(0.100000,-0.100000)"
fill="#000000" stroke="none">
<path d="M0 225 c1 -216 2 -225 21 -225 18 0 19 9 19 225 0 219 -1 225 -20
225 -20 0 -20 -6 -20 -225z"/>
<path d="M400 225 c0 -182 3 -225 14 -225 17 0 26 109 26 308 0 135 -1 142
-20 142 -19 0 -20 -7 -20 -225z"/>
<path d="M138 414 c-16 -8 -29 -20 -29 -27 -7 -63 -4 -135 5 -147 7 -8 18 -33
25 -55 8 -22 19 -43 25 -47 19 -13 60 -9 84 8 31 22 38 11 22 -34 -17 -49 -21
-83 -10 -102 8 -12 9 -11 10 8 0 12 7 25 15 28 8 4 12 11 9 16 -4 6 -10 5 -15
-3 -7 -11 -9 -10 -9 4 0 9 4 17 9 17 5 0 7 10 4 23 -3 12 -2 19 2 15 5 -4 14
-3 22 3 12 11 18 2 14 -23 0 -5 3 -8 8 -8 9 0 7 -29 -5 -67 -4 -14 -2 -23 5
-23 11 0 14 19 15 85 1 24 5 29 21 27 20 -3 20 -2 1 13 -11 8 -25 15 -32 15
-6 0 -23 9 -37 20 -24 19 -27 47 -7 75 13 18 18 55 9 61 -5 3 -9 25 -9 49 0
35 -5 48 -26 64 -31 25 -87 27 -126 5z m130 -66 c3 -21 -1 -27 -20 -30 -14 -2
-24 -11 -25 -23 -2 -11 0 -14 3 -6 5 11 8 11 15 0 7 -11 9 -10 9 4 0 9 5 17
12 17 6 0 8 -3 5 -6 -3 -4 -2 -15 3 -25 7 -12 6 -26 -2 -43 -13 -29 -33 -34
-42 -10 -3 8 -11 12 -17 8 -6 -3 -15 0 -20 7 -7 11 -9 12 -9 1 0 -8 9 -16 20
-19 11 -3 20 -9 20 -14 0 -5 7 -9 15 -9 24 0 17 -29 -10 -42 -37 -17 -62 11
-89 100 -6 18 -3 22 13 22 21 0 37 17 27 27 -4 4 -12 1 -18 -5 -15 -15 -32
-16 -23 -2 3 6 2 10 -3 10 -9 0 -8 21 4 58 3 9 22 12 66 10 60 -3 63 -4 66
-30z"/>
<path d="M235 125 c-35 -28 -53 -31 -61 -10 -4 8 -11 15 -17 15 -7 0 1 -12 16
-27 l27 -28 37 38 c43 42 42 48 -2 12z"/>
<path d="M88 117 c-34 -15 -24 -43 12 -32 12 4 19 9 16 12 -3 4 2 12 12 19 23
18 -2 18 -40 1z"/>
<path d="M133 53 c-1 -46 1 -52 7 -28 11 42 12 85 2 85 -5 0 -9 -26 -9 -57z"/>
<path d="M175 70 c-3 -5 -2 -22 1 -39 5 -22 12 -31 26 -31 15 0 18 5 13 19 -3
11 -1 22 5 26 5 3 10 10 10 14 0 11 -49 20 -55 11z"/>
</g>
</svg>
